<svg width="172" height="37" viewBox="0 0 172 37" fill="none" xmlns="http://www.w3.org/2000/svg">
<path id="Vector" d="M12.5671 21.9643C11.8665 22.7327 10.827 23.3429 9.24502 23.3429C5.53875 23.3429 4.99637 19.5236 4.99637 18.2806C4.99637 17.0151 5.56135 13.2184 9.24502 13.2184C10.6462 13.2184 11.9117 13.8512 12.5671 14.5066V21.9643ZM17.5615 27.5011V11.5235C17.5615 10.0319 16.5898 9.01498 15.1434 9.01498C14.3299 9.01498 13.6745 9.33136 13.2451 9.87374C11.9569 9.10537 10.488 8.72117 9.04164 8.72117C2.14888 8.72117 0.00195312 14.3032 0.00195312 18.2806C0.00195312 22.1225 1.99069 27.5237 8.40886 27.8627C8.81565 27.8627 9.26763 27.8627 9.67441 27.8175C10.9852 27.7497 12.3637 27.3203 13.4711 26.4164C14.1717 27.3429 15.279 27.9531 16.522 27.9531H17.1096C17.3581 27.9531 17.5615 27.7497 17.5615 27.5011ZM32.9742 21.9417C32.2736 22.7327 31.2341 23.3203 29.6295 23.3203C25.9232 23.3203 25.3583 19.501 25.3583 18.2354C25.3583 16.9699 25.9232 13.1506 29.6295 13.1506C31.0307 13.1506 32.2962 13.7834 32.9742 14.4614V21.9417ZM37.9912 27.5011V4.87931C37.9912 2.68719 36.2511 0.901855 34.0816 0.901855H33.4714C33.2228 0.901855 33.0194 1.10525 33.0194 1.35384V9.46696C31.8894 8.92458 30.6691 8.65338 29.4261 8.65338C22.5108 8.65338 20.3638 14.258 20.3638 18.2354C20.3638 22.0999 22.3752 27.5237 28.7933 27.8627C29.2001 27.8627 29.6521 27.8627 30.0589 27.8175C31.3697 27.7497 32.7482 27.3203 33.8782 26.4164C34.5787 27.3429 35.6861 27.9531 36.9517 27.9531H37.5392C37.7878 27.9531 37.9912 27.7497 37.9912 27.5011ZM59.2797 9.51215C59.3927 9.24096 59.2119 8.94717 58.8955 8.94717H56.5452C54.9858 8.94717 53.5621 9.87373 52.9293 11.3201L49.9688 18.2354L47.0083 11.3201C46.3981 9.87373 44.9744 8.94717 43.3924 8.94717H41.0873C40.7935 8.94717 40.5901 9.24096 40.7031 9.51215L49.3586 27.5689C49.4716 27.7949 49.6976 27.9531 49.9688 27.9531C50.24 27.9531 50.4886 27.7949 50.6016 27.5689L59.2797 9.51215ZM72.229 21.9643C71.5284 22.7327 70.4889 23.3429 68.9069 23.3429C65.2007 23.3429 64.6583 19.5236 64.6583 18.2806C64.6583 17.0151 65.2233 13.2184 68.9069 13.2184C70.3081 13.2184 71.5736 13.8512 72.229 14.5066V21.9643ZM77.2234 27.5011V11.5235C77.2234 10.0319 76.2517 9.01498 74.8053 9.01498C73.9918 9.01498 73.3364 9.33136 72.907 9.87374C71.6188 9.10537 70.1499 8.72117 68.7035 8.72117C61.8108 8.72117 59.6639 14.3032 59.6639 18.2806C59.6639 22.1225 61.6526 27.5237 68.0708 27.8627C68.4776 27.8627 68.9295 27.8627 69.3363 27.8175C70.6471 27.7497 72.0256 27.3203 73.133 26.4164C73.8336 27.3429 74.9409 27.9531 76.1839 27.9531H76.7715C77.0201 27.9531 77.2234 27.7497 77.2234 27.5011ZM96.8622 25.2412V16.0433C96.8622 11.6591 94.1276 8.69858 90.0824 8.69858C88.0711 8.69858 86.1275 9.42175 84.9072 10.9811C84.2518 9.73814 82.941 8.87937 81.4495 8.87937H80.8393C80.5907 8.87937 80.3873 9.08276 80.3873 9.33136V25.2186C80.3873 26.7779 81.3817 27.8175 82.8733 27.8175C84.2066 27.8175 85.1332 26.9813 85.314 25.6932C85.3592 25.535 85.3818 25.3542 85.3818 25.1734V16.8117C85.5626 14.71 86.7603 13.4444 88.7038 13.4444C91.5287 13.4444 91.9581 15.8851 91.9581 17.3315V25.2186C91.9581 26.7779 92.9525 27.8175 94.444 27.8175C95.8678 27.8401 96.8622 26.8005 96.8622 25.2412ZM112.885 11.1619C112.885 9.82855 111.823 8.74378 110.489 8.74378H108.365V4.87931C108.365 2.68719 106.625 0.901855 104.455 0.901855H103.845C103.597 0.901855 103.393 1.10525 103.393 1.35384V8.72117H101.179C99.8453 8.72117 98.7831 9.80594 98.7831 11.1393C98.7831 12.4726 99.8453 13.5574 101.179 13.5574H103.393V23.8626C103.393 26.0548 105.133 27.8401 107.303 27.8401H107.913C108.162 27.8401 108.365 27.6367 108.365 27.3881V13.58H110.489C111.823 13.58 112.885 12.4953 112.885 11.1619ZM126.535 21.9643C125.834 22.7327 124.795 23.3429 123.213 23.3429C119.507 23.3429 118.964 19.5236 118.964 18.2806C118.964 17.0151 119.529 13.2184 123.213 13.2184C124.614 13.2184 125.88 13.8512 126.535 14.5066V21.9643ZM131.529 27.5011V11.5235C131.529 10.0319 130.558 9.01498 129.111 9.01498C128.298 9.01498 127.642 9.33136 127.213 9.87374C125.925 9.10537 124.456 8.72117 123.009 8.72117C116.117 8.72117 113.97 14.3032 113.97 18.2806C113.97 22.1225 115.958 27.5237 122.377 27.8627C122.783 27.8627 123.235 27.8627 123.642 27.8175C124.953 27.7497 126.332 27.3203 127.439 26.4164C128.139 27.3429 129.247 27.9531 130.49 27.9531H131.077C131.326 27.9531 131.529 27.7497 131.529 27.5011ZM146.806 21.9869C146.106 22.7553 145.066 23.3655 143.484 23.3655C139.778 23.3655 139.236 19.5462 139.236 18.3032C139.236 17.0603 139.801 13.241 143.484 13.241C144.885 13.241 146.151 13.8738 146.806 14.5292V21.9869ZM151.801 27.5915V11.5461C151.801 10.0545 150.829 9.03757 149.383 9.03757C148.569 9.03757 147.914 9.35396 147.484 9.89634C146.196 9.12796 144.727 8.74378 143.281 8.74378C136.388 8.74378 134.241 14.3258 134.241 18.3032C134.241 22.1451 136.23 27.5689 142.648 27.8853C145.292 27.9983 146.761 27.0717 146.761 27.0717V27.3203C146.761 27.8401 146.987 31.569 143.055 31.569C142.264 31.569 141.45 31.3882 140.614 31.0266C140.614 31.0266 140.253 30.8232 139.891 30.6198C139.552 30.439 138.874 30.0548 137.857 30.1226C136.931 30.1904 135.868 30.6198 135.1 31.8176L134.942 32.1114C134.829 32.3147 134.874 32.5633 135.077 32.6989C135.077 32.6989 136.953 34.0097 137.066 34.0775C139.778 35.8854 142.196 36.021 143.191 36.021C150.467 36.0662 151.688 30.8458 151.801 27.5915ZM166.4 16.1563H159.756C160.321 14.4388 161.609 13.2184 163.688 13.2184C165.835 13.2636 166.355 14.6422 166.4 16.1563ZM171.372 16.7213C171.372 11.8851 168.615 8.74378 163.688 8.74378C156.592 8.74378 154.4 14.3484 154.4 18.258C154.4 22.2581 156.592 27.7949 163.688 27.7949C165.338 27.7949 166.694 27.4107 167.643 26.9813C169.473 26.1452 170.671 25.4672 170.671 25.4672C170.875 25.3542 170.965 25.1056 170.875 24.8796L170.739 24.5632C170.174 23.2525 168.841 22.4389 167.462 22.4615C166.716 22.4841 166.536 22.6197 165.993 22.8005C165.225 23.0717 164.434 23.2299 163.665 23.2299C161.247 23.2299 159.869 21.3315 159.575 19.1394H170.558C170.92 19.1394 171.236 18.8682 171.236 18.5066C171.327 17.9191 171.372 17.3089 171.372 16.7213Z" fill="#DF0024"/>
</svg>
