<svg width="114" height="17" viewBox="0 0 114 17" fill="none" xmlns="http://www.w3.org/2000/svg">
<g id="Group 271">
<path id="Vector" d="M6.59283 8.88669V8.89515C6.59283 8.88669 6.59283 8.87823 6.59283 8.87823C6.59283 7.43143 5.7806 5.1724 3.3185 5.07933C3.3185 5.07933 1.7871 4.99473 0.856415 5.92541C0.340307 6.4246 0.0357153 7.18607 0.00187216 7.6768V7.79525C0.00187216 8.3875 0.83949 8.63287 1.38098 8.27751C2.11707 7.78679 2.04093 7.13531 3.12391 7.05916C4.23227 6.99147 4.73146 7.956 4.73146 8.87823C4.73146 9.80046 4.23227 10.765 3.12391 10.6973C2.04939 10.6296 2.12553 9.96967 1.38098 9.47895C0.847951 9.12359 0.0357153 9.37742 0.00187216 9.91891V14.4116C0.00187216 14.4116 -0.125039 16.0614 1.71095 16.0614C1.83787 16.0614 1.88017 15.9515 1.88017 15.833V12.2541C1.88017 12.2541 2.4132 12.5164 3.36927 12.4825C5.92443 12.4064 6.59283 10.3927 6.59283 8.88669ZM12.0754 8.06599H9.57949C9.79101 7.42297 10.2733 6.95763 11.0601 6.95763C11.8639 6.97455 12.0585 7.49066 12.0754 8.06599ZM13.903 8.94591C13.9368 8.71747 13.9537 8.50595 13.9537 8.26905C13.9453 6.45844 12.9215 5.27393 11.0601 5.27393C8.40344 5.27393 7.58275 7.37221 7.58275 8.83593C7.58275 10.3335 8.40344 12.4148 11.0601 12.4148C12.0077 12.4148 12.7608 12.0933 13.5307 11.4926C13.6322 11.408 13.6576 11.2642 13.5814 11.1373L12.9384 10.2658C12.8538 10.1558 12.71 10.1389 12.6085 10.215C12.1177 10.5365 11.5762 10.7058 11.0601 10.7058C10.1548 10.7058 9.63872 9.99505 9.52873 9.17436H13.6491C13.793 9.17436 13.903 9.08129 13.903 8.94591ZM21.7546 8.87823C21.7546 7.43143 20.9423 5.1724 18.4802 5.07933C18.4802 5.07933 16.9488 4.99473 16.0182 5.92541C15.502 6.4246 15.1975 7.18607 15.1636 7.6768V7.79525C15.1636 8.3875 16.0012 8.63287 16.5427 8.27751C17.2788 7.78679 17.2027 7.13531 18.2857 7.05916C19.394 6.99147 19.8932 7.956 19.8932 8.87823C19.8932 9.80046 19.394 10.765 18.2857 10.6973C17.2111 10.6296 17.2873 9.96967 16.5427 9.47895C16.0097 9.12359 15.1636 9.38588 15.1636 9.96121V14.4116C15.1636 14.4116 15.0367 16.0614 16.8727 16.0614C16.9996 16.0614 17.0419 15.9515 17.0419 15.833V12.2541C17.0419 12.2541 17.5749 12.5164 18.531 12.4825C21.0862 12.4064 21.7546 10.3843 21.7546 8.87823ZM29.6316 8.87823C29.6231 7.43143 28.8109 5.1724 26.3572 5.07933C26.3572 5.07933 24.8258 4.99473 23.8952 5.92541C23.379 6.4246 23.0745 7.18607 23.0406 7.6768V7.79525C23.0406 8.3875 23.8782 8.63287 24.4197 8.27751C25.1558 7.78679 25.0797 7.13531 26.1626 7.05916C27.271 6.99147 27.7702 7.956 27.7702 8.87823C27.7702 9.80046 27.271 10.765 26.1626 10.6973C25.0881 10.6296 25.1643 9.96967 24.4197 9.47895C23.8867 9.12359 23.0406 9.38588 23.0406 9.96121V14.4116C23.0406 14.4116 22.9137 16.0614 24.7497 16.0614C24.8766 16.0614 24.9189 15.9515 24.9189 15.833V12.2541C24.9189 12.2541 25.4519 12.5164 26.408 12.4825C28.9716 12.4064 29.6316 10.3843 29.6316 8.87823ZM35.2242 8.06599H32.7282C32.9397 7.42297 33.422 6.95763 34.2089 6.95763C35.0126 6.97455 35.2157 7.49066 35.2242 8.06599ZM37.0517 8.94591C37.0855 8.71747 37.1025 8.50595 37.1025 8.26905C37.094 6.45844 36.0533 5.27393 34.2089 5.27393C31.5522 5.27393 30.7315 7.37221 30.7315 8.83593C30.7315 10.3335 31.5522 12.4148 34.2089 12.4148C35.1565 12.4148 35.9095 12.0933 36.6794 11.4926C36.7809 11.408 36.8063 11.2642 36.7302 11.1373L36.0872 10.2658C36.0025 10.1558 35.8587 10.1389 35.7572 10.215C35.2665 10.5365 34.725 10.7058 34.2089 10.7058C33.3036 10.7058 32.7874 9.99505 32.6775 9.17436H36.7979C36.9417 9.17436 37.0517 9.08129 37.0517 8.94591ZM42.3397 6.88994L42.7543 5.6039C42.7712 5.51083 42.695 5.38392 42.5766 5.35854C42.2635 5.31624 41.8913 5.29085 41.6544 5.29085C41.0113 5.29085 40.4275 5.44315 39.8776 5.80696L39.793 5.59544C39.7422 5.45161 39.6153 5.367 39.4715 5.367H38.6677C38.5408 5.367 38.4393 5.47699 38.4393 5.59544V12.0764C38.4393 12.2033 38.5493 12.3049 38.6677 12.3049H40.0722C40.1991 12.3049 40.3006 12.1949 40.3006 12.0764V7.59219C40.5629 7.15223 40.9944 7.01686 41.4344 7.01686C41.6459 7.01686 41.849 7.0507 42.0266 7.06762C42.1705 7.08454 42.2889 7.01686 42.3397 6.88994Z" fill="#DF0024"/>
<path id="Vector_2" d="M54.2179 10.0667C53.9556 10.3543 53.5664 10.5828 52.9741 10.5828C51.5866 10.5828 51.3835 9.15291 51.3835 8.68757C51.3835 8.21376 51.595 6.79235 52.9741 6.79235C53.4987 6.79235 53.9725 7.02925 54.2179 7.27461V10.0667ZM56.0877 12.1396V6.15779C56.0877 5.59937 55.7239 5.21864 55.1824 5.21864C54.8778 5.21864 54.6325 5.33709 54.4717 5.54015C53.9894 5.25248 53.4395 5.10865 52.898 5.10865C50.3174 5.10865 49.5137 7.19847 49.5137 8.68757C49.5137 10.1259 50.2582 12.148 52.6611 12.2749C52.8134 12.2749 52.9826 12.2749 53.1349 12.258C53.6256 12.2326 54.1417 12.0719 54.5563 11.7335C54.8186 12.0803 55.2332 12.3088 55.6985 12.3088H55.9185C56.0116 12.3088 56.0877 12.2326 56.0877 12.1396ZM61.858 10.0582C61.5957 10.3543 61.2065 10.5743 60.6058 10.5743C59.2182 10.5743 59.0067 9.14445 59.0067 8.67064C59.0067 8.19684 59.2182 6.76696 60.6058 6.76696C61.1303 6.76696 61.6041 7.00387 61.858 7.25769V10.0582ZM63.7363 12.1396V3.67031C63.7363 2.84961 63.0848 2.18121 62.2725 2.18121H62.0441C61.951 2.18121 61.8749 2.25736 61.8749 2.35043V5.38786C61.4518 5.1848 60.995 5.08326 60.5296 5.08326C57.9406 5.08326 57.1368 7.18154 57.1368 8.67064C57.1368 10.1174 57.8899 12.148 60.2927 12.2749C60.445 12.2749 60.6142 12.2749 60.7665 12.258C61.2573 12.2326 61.7734 12.0719 62.1964 11.7335C62.4587 12.0803 62.8733 12.3088 63.3471 12.3088H63.567C63.6601 12.3088 63.7363 12.2326 63.7363 12.1396ZM71.7063 5.40477C71.7486 5.30324 71.6809 5.19325 71.5625 5.19325H70.6826C70.0988 5.19325 69.5658 5.54015 69.3289 6.08164L68.2205 8.67064L67.1121 6.08164C66.8837 5.54015 66.3507 5.19325 65.7584 5.19325H64.8954C64.7854 5.19325 64.7093 5.30324 64.7516 5.40477L67.992 12.1649C68.0343 12.2496 68.119 12.3088 68.2205 12.3088C68.322 12.3088 68.4151 12.2496 68.4574 12.1649L71.7063 5.40477ZM76.5544 10.0667C76.2921 10.3543 75.9029 10.5828 75.3106 10.5828C73.9231 10.5828 73.72 9.15291 73.72 8.68757C73.72 8.21376 73.9315 6.79235 75.3106 6.79235C75.8352 6.79235 76.309 7.02925 76.5544 7.27461V10.0667ZM78.4242 12.1396V6.15779C78.4242 5.59937 78.0604 5.21864 77.5189 5.21864C77.2143 5.21864 76.9689 5.33709 76.8082 5.54015C76.3259 5.25248 75.776 5.10865 75.2345 5.10865C72.6539 5.10865 71.8502 7.19847 71.8502 8.68757C71.8502 10.1259 72.5947 12.148 74.9976 12.2749C75.1499 12.2749 75.3191 12.2749 75.4714 12.258C75.9621 12.2326 76.4782 12.0719 76.8928 11.7335C77.1551 12.0803 77.5697 12.3088 78.035 12.3088H78.255C78.3481 12.3088 78.4242 12.2326 78.4242 12.1396ZM85.7766 11.2935V7.84994C85.7766 6.20855 84.7529 5.10019 83.2384 5.10019C82.4854 5.10019 81.7578 5.37093 81.3009 5.95473C81.0555 5.48938 80.5648 5.16787 80.0064 5.16787H79.7779C79.6849 5.16787 79.6087 5.24402 79.6087 5.33709V11.285C79.6087 11.8688 79.981 12.258 80.5394 12.258C81.0386 12.258 81.3855 11.945 81.4532 11.4627C81.4701 11.4035 81.4785 11.3358 81.4785 11.2681V8.13761C81.5462 7.35076 81.9947 6.87695 82.7223 6.87695C83.7799 6.87695 83.9406 7.79072 83.9406 8.33221V11.285C83.9406 11.8688 84.3129 12.258 84.8713 12.258C85.4044 12.2665 85.7766 11.8773 85.7766 11.2935ZM91.7753 6.02242C91.7753 5.52323 91.3777 5.11711 90.8785 5.11711H90.0832V3.67031C90.0832 2.84961 89.4317 2.18121 88.6195 2.18121H88.391C88.2979 2.18121 88.2218 2.25736 88.2218 2.35043V5.10865H87.3926C86.8935 5.10865 86.4958 5.51476 86.4958 6.01395C86.4958 6.51314 86.8935 6.91926 87.3926 6.91926H88.2218V10.7774C88.2218 11.5981 88.8733 12.2665 89.6855 12.2665H89.914C90.007 12.2665 90.0832 12.1903 90.0832 12.0973V6.92772H90.8785C91.3777 6.92772 91.7753 6.5216 91.7753 6.02242ZM96.8857 10.0667C96.6234 10.3543 96.2342 10.5828 95.6419 10.5828C94.2543 10.5828 94.0513 9.15291 94.0513 8.68757C94.0513 8.21376 94.2628 6.79235 95.6419 6.79235C96.1665 6.79235 96.6403 7.02925 96.8857 7.27461V10.0667ZM98.7555 12.1396V6.15779C98.7555 5.59937 98.3917 5.21864 97.8502 5.21864C97.5456 5.21864 97.3002 5.33709 97.1395 5.54015C96.6572 5.25248 96.1073 5.10865 95.5658 5.10865C92.9852 5.10865 92.1815 7.19847 92.1815 8.68757C92.1815 10.1259 92.926 12.148 95.3289 12.2749C95.4812 12.2749 95.6504 12.2749 95.8027 12.258C96.2934 12.2326 96.8095 12.0719 97.2241 11.7335C97.4864 12.0803 97.9009 12.3088 98.3663 12.3088H98.5863C98.6793 12.3088 98.7555 12.2326 98.7555 12.1396ZM104.475 10.0751C104.213 10.3628 103.824 10.5912 103.231 10.5912C101.844 10.5912 101.641 9.16137 101.641 8.69602C101.641 8.23068 101.852 6.8008 103.231 6.8008C103.756 6.8008 104.23 7.03771 104.475 7.28307V10.0751ZM106.345 12.1734V6.16624C106.345 5.60783 105.981 5.2271 105.44 5.2271C105.135 5.2271 104.89 5.34555 104.729 5.54861C104.247 5.26094 103.697 5.11711 103.155 5.11711C100.575 5.11711 99.7708 7.20692 99.7708 8.69602C99.7708 10.1344 100.515 12.165 102.918 12.2834C103.908 12.3257 104.458 11.9788 104.458 11.9788V12.0719C104.458 12.2665 104.543 13.6625 103.07 13.6625C102.774 13.6625 102.47 13.5948 102.157 13.4594C102.157 13.4594 102.021 13.3833 101.886 13.3072C101.759 13.2395 101.505 13.0956 101.125 13.121C100.778 13.1464 100.38 13.3072 100.092 13.7556L100.033 13.8656C99.9908 13.9417 100.008 14.0348 100.084 14.0856C100.084 14.0856 100.786 14.5763 100.828 14.6017C101.844 15.2785 102.749 15.3293 103.121 15.3293C105.846 15.3462 106.303 13.3918 106.345 12.1734ZM111.81 7.89225H109.323C109.535 7.24923 110.017 6.79235 110.795 6.79235C111.599 6.80927 111.794 7.32538 111.81 7.89225ZM113.672 8.10377C113.672 6.29316 112.64 5.11711 110.795 5.11711C108.139 5.11711 107.318 7.21538 107.318 8.6791C107.318 10.1767 108.139 12.2496 110.795 12.2496C111.413 12.2496 111.92 12.1057 112.276 11.945C112.961 11.6319 113.41 11.3781 113.41 11.3781C113.486 11.3358 113.52 11.2427 113.486 11.1581L113.435 11.0397C113.223 10.5489 112.724 10.2444 112.208 10.2528C111.929 10.2613 111.861 10.312 111.658 10.3797C111.371 10.4813 111.074 10.5405 110.787 10.5405C109.881 10.5405 109.365 9.82977 109.255 9.00907H113.367C113.503 9.00907 113.621 8.90755 113.621 8.77217C113.655 8.55219 113.672 8.32375 113.672 8.10377Z" fill="#DF0024"/>
<line id="Line 1" x1="46.2704" y1="1.08863" x2="46.2704" y2="16.2049" stroke="#DF0024" stroke-width="0.521252" stroke-linecap="round"/>
</g>
</svg>
