<svg width="12" height="12" viewBox="0 0 12 12" fill="none" xmlns="http://www.w3.org/2000/svg">
<g id="times">
<path id="Vector" d="M6.35301 6.00002L6.70657 5.64647L11.1266 1.22647L11.1328 1.22023L11.1393 1.21421C11.1638 1.19132 11.1835 1.16372 11.1972 1.13306C11.2109 1.1024 11.2182 1.06929 11.2188 1.03572C11.2194 1.00215 11.2132 0.968809 11.2006 0.93768C11.1881 0.906555 11.1693 0.878276 11.1456 0.854534C11.1219 0.830795 11.0936 0.812081 11.0625 0.799507C11.0313 0.786932 10.998 0.780758 10.9644 0.78135C10.9309 0.781942 10.8977 0.789289 10.8671 0.802953C10.8364 0.816618 10.8088 0.836319 10.7859 0.86088L10.7799 0.867334L10.7737 0.873573L6.35367 5.29357L6.00012 5.64713L5.64657 5.29357L1.23448 0.881483C1.18769 0.840092 1.12703 0.817662 1.06442 0.818766C0.999653 0.819909 0.937857 0.846146 0.892053 0.891951C0.846248 0.937756 0.820011 0.999551 0.818868 1.06432C0.817763 1.12693 0.840194 1.18759 0.881584 1.23438L5.29367 5.64647L5.64723 6.00002L5.29367 6.35357L0.873894 10.7734L6.35301 6.00002ZM6.35301 6.00002L6.70657 6.35357M6.35301 6.00002L6.70657 6.35357M6.70657 6.35357L11.1263 10.7734L6.70657 6.35357ZM6.00012 6.35291L6.35367 6.70647L10.7735 11.1262L6.00012 6.35291ZM6.00012 6.35291L5.64657 6.70647M6.00012 6.35291L5.64657 6.70647M5.64657 6.70647L1.22679 11.1262L5.64657 6.70647ZM0.800781 10.95C0.800781 10.8839 0.826996 10.8204 0.873675 10.7736L1.22657 11.1265C1.17971 11.1731 1.11627 11.1994 1.05012 11.1994C0.983969 11.1994 0.920515 11.1731 0.873658 11.1264C0.826989 11.0796 0.800781 11.0162 0.800781 10.95ZM10.9501 11.1994C10.884 11.1994 10.8205 11.1731 10.7737 11.1265L11.1266 10.7736C11.1732 10.8204 11.1995 10.8839 11.1995 10.95C11.1995 11.0162 11.1732 11.0796 11.1266 11.1265C11.0797 11.1731 11.0163 11.1994 10.9501 11.1994Z" fill="#411941" stroke="#411941"/>
</g>
</svg>
