<svg width="18" height="18" viewBox="0 0 18 18" fill="none" xmlns="http://www.w3.org/2000/svg">
<g id="Icons">
<path id="Vector" d="M13.6667 5.8C13.6667 4.52696 13.175 3.30606 12.2998 2.40589C11.4247 1.50571 10.2377 1 9 1C7.76232 1 6.57534 1.50571 5.70017 2.40589C4.825 3.30606 4.33333 4.52696 4.33333 5.8C4.33333 11.4 2 13 2 13H16C16 13 13.6667 11.4 13.6667 5.8Z" stroke="#411941" stroke-linecap="round" stroke-linejoin="round"/>
<path id="Vector_2" d="M11 16C10.8476 16.3042 10.6288 16.5566 10.3655 16.7321C10.1023 16.9076 9.8038 17 9.5 17C9.1962 17 8.89774 16.9076 8.63449 16.7321C8.37123 16.5566 8.15244 16.3042 8 16" stroke="#411941" stroke-linecap="round" stroke-linejoin="round"/>
<circle id="Ellipse 18" cx="13.5" cy="4.5" r="4" fill="#DF0024" stroke="white"/>
</g>
</svg>
