<svg width="115" height="30" viewBox="0 0 115 30" fill="none" xmlns="http://www.w3.org/2000/svg">
<path id="Vector" d="M18.3598 10.8126V10.8352C18.3598 10.8126 18.3598 10.79 18.3598 10.79C18.3598 6.92556 16.1903 0.891574 9.61389 0.642983C9.61389 0.642983 5.52344 0.416992 3.03753 2.9029C1.65898 4.23626 0.845397 6.27018 0.755001 7.58094V7.89732C0.755001 9.47927 2.99232 10.1346 4.43867 9.18548C6.4048 7.87473 6.20142 6.13459 9.09411 5.9312C12.0546 5.7504 13.388 8.32671 13.388 10.79C13.388 13.2533 12.0546 15.8296 9.09411 15.6489C6.22401 15.4681 6.4274 13.7053 4.43867 12.3946C3.01492 11.4454 0.845397 12.1234 0.755001 13.5697V25.5699C0.755001 25.5699 0.416015 29.9768 5.32004 29.9768C5.65903 29.9768 5.77203 29.683 5.77203 29.3666V19.8071C5.77203 19.8071 7.19577 20.5077 9.74948 20.4173C16.5744 20.2139 18.3598 14.8353 18.3598 10.8126ZM33.0041 8.6205H26.3373C26.9023 6.90296 28.1904 5.66 30.2922 5.66C32.4391 5.7052 32.9589 7.08375 33.0041 8.6205ZM37.8855 10.9708C37.9759 10.3606 38.0211 9.79566 38.0211 9.16288C37.9985 4.32665 35.264 1.16276 30.2922 1.16276C23.196 1.16276 21.0039 6.76737 21.0039 10.677C21.0039 14.6771 23.196 20.2365 30.2922 20.2365C32.8233 20.2365 34.8346 19.3777 36.8911 17.7732C37.1623 17.5472 37.2301 17.163 37.0267 16.824L35.3092 14.4963C35.0832 14.2025 34.699 14.1573 34.4278 14.3607C33.1171 15.2195 31.6707 15.6715 30.2922 15.6715C27.8741 15.6715 26.4955 13.7731 26.2017 11.581H37.2075C37.5917 11.581 37.8855 11.3324 37.8855 10.9708ZM58.8576 10.79C58.8576 6.92556 56.688 0.891574 50.1117 0.642983C50.1117 0.642983 46.0212 0.416992 43.5353 2.9029C42.1567 4.23626 41.3432 6.27018 41.2528 7.58094V7.89732C41.2528 9.47927 43.4901 10.1346 44.9365 9.18548C46.9026 7.87473 46.6992 6.13459 49.5919 5.9312C52.5524 5.7504 53.8857 8.32671 53.8857 10.79C53.8857 13.2533 52.5524 15.8296 49.5919 15.6489C46.7218 15.4681 46.9252 13.7053 44.9365 12.3946C43.5127 11.4454 41.2528 12.146 41.2528 13.6827V25.5699C41.2528 25.5699 40.9138 29.9768 45.8178 29.9768C46.1568 29.9768 46.2698 29.683 46.2698 29.3666V19.8071C46.2698 19.8071 47.6936 20.5077 50.2473 20.4173C57.0722 20.2139 58.8576 14.8127 58.8576 10.79ZM79.8974 10.79C79.8748 6.92556 77.7053 0.891574 71.1515 0.642983C71.1515 0.642983 67.0611 0.416992 64.5752 2.9029C63.1966 4.23626 62.383 6.27018 62.2926 7.58094V7.89732C62.2926 9.47927 64.53 10.1346 65.9763 9.18548C67.9425 7.87473 67.7391 6.13459 70.6318 5.9312C73.5922 5.7504 74.9256 8.32671 74.9256 10.79C74.9256 13.2533 73.5922 15.8296 70.6318 15.6489C67.7617 15.4681 67.965 13.7053 65.9763 12.3946C64.5526 11.4454 62.2926 12.146 62.2926 13.6827V25.5699C62.2926 25.5699 61.9536 29.9768 66.8577 29.9768C67.1967 29.9768 67.3097 29.683 67.3097 29.3666V19.8071C67.3097 19.8071 68.7334 20.5077 71.2871 20.4173C78.1347 20.2139 79.8974 14.8127 79.8974 10.79ZM94.8355 8.6205H88.1687C88.7337 6.90296 90.0219 5.66 92.1236 5.66C94.2705 5.7052 94.8129 7.08375 94.8355 8.6205ZM99.7169 10.9708C99.8073 10.3606 99.8525 9.79566 99.8525 9.16288C99.8299 4.32665 97.0502 1.16276 92.1236 1.16276C85.0274 1.16276 82.8353 6.76737 82.8353 10.677C82.8353 14.6771 85.0274 20.2365 92.1236 20.2365C94.6547 20.2365 96.666 19.3777 98.7226 17.7732C98.9938 17.5472 99.0616 17.163 98.8582 16.824L97.1406 14.4963C96.9146 14.2025 96.5304 14.1573 96.2593 14.3607C94.9485 15.2195 93.5021 15.6715 92.1236 15.6715C89.7055 15.6715 88.3269 13.7731 88.0331 11.581H99.0389C99.4231 11.581 99.7169 11.3324 99.7169 10.9708ZM113.841 5.47921L114.949 2.04413C114.994 1.79554 114.791 1.45655 114.474 1.38875C113.638 1.27576 112.644 1.20796 112.011 1.20796C110.293 1.20796 108.734 1.61474 107.265 2.58651L107.039 2.02153C106.903 1.63734 106.564 1.41135 106.18 1.41135H104.033C103.694 1.41135 103.423 1.70514 103.423 2.02153V19.3325C103.423 19.6715 103.717 19.9427 104.033 19.9427H107.785C108.124 19.9427 108.395 19.6489 108.395 19.3325V7.35494C109.096 6.17978 110.248 5.8182 111.423 5.8182C111.988 5.8182 112.531 5.9086 113.005 5.9538C113.389 5.99899 113.706 5.8182 113.841 5.47921Z" fill="#DF0024"/>
</svg>
