<svg width="20" height="20" viewBox="0 0 20 20" fill="none" xmlns="http://www.w3.org/2000/svg">
<g id="plus">
<g id="plus_2">
<path id="Vector" d="M10.6253 9.37502V4.16669C10.6253 4.00093 10.5595 3.84196 10.4423 3.72475C10.3251 3.60753 10.1661 3.54169 10.0003 3.54169C9.83457 3.54169 9.67559 3.60753 9.55838 3.72475C9.44117 3.84196 9.37533 4.00093 9.37533 4.16669V9.37502H4.16699C4.00123 9.37502 3.84226 9.44087 3.72505 9.55808C3.60784 9.67529 3.54199 9.83426 3.54199 10C3.54199 10.1658 3.60784 10.3248 3.72505 10.442C3.84226 10.5592 4.00123 10.625 4.16699 10.625H9.37533V15.8334C9.37748 15.9984 9.44403 16.1562 9.56077 16.2729C9.67752 16.3897 9.83524 16.4562 10.0003 16.4584C10.1661 16.4584 10.3251 16.3925 10.4423 16.2753C10.5595 16.1581 10.6253 15.9991 10.6253 15.8334V10.625H15.8337C15.9994 10.625 16.1584 10.5592 16.2756 10.442C16.3928 10.3248 16.4587 10.1658 16.4587 10C16.4565 9.83493 16.39 9.67721 16.2732 9.56047C16.1565 9.44372 15.9987 9.37718 15.8337 9.37502H10.6253Z" fill="white"/>
</g>
</g>
</svg>
